<mxfile host="Electron" modified="2024-02-13T03:24:21.691Z" agent="Mozilla/5.0 (Macintosh; Intel Mac OS X 10_15_7) AppleWebKit/537.36 (KHTML, like Gecko) draw.io/23.0.2 Chrome/120.0.6099.109 Electron/28.1.0 Safari/537.36" etag="V5vJ44NeCS2_93IH_zMb" version="23.0.2" type="device">
  <diagram name="第 1 页" id="v4g-L3-ZHjjAc5xld4gs">
    <mxGraphModel dx="2074" dy="1267" grid="1" gridSize="10" guides="1" tooltips="1" connect="1" arrows="1" fold="1" page="1" pageScale="1" pageWidth="827" pageHeight="1169" math="0" shadow="0">
      <root>
        <mxCell id="0" />
        <mxCell id="1" parent="0" />
        <mxCell id="qrEGvLMcKR_sBZyC1PwX-1" value="" style="rounded=1;whiteSpace=wrap;html=1;" vertex="1" parent="1">
          <mxGeometry x="50" y="370" width="660" height="490" as="geometry" />
        </mxCell>
        <mxCell id="qrEGvLMcKR_sBZyC1PwX-2" value="" style="rounded=1;whiteSpace=wrap;html=1;" vertex="1" parent="1">
          <mxGeometry x="210" y="520" width="320" height="180" as="geometry" />
        </mxCell>
        <mxCell id="qrEGvLMcKR_sBZyC1PwX-3" value="&lt;font style=&quot;font-size: 15px;&quot;&gt;rA&lt;/font&gt;" style="shape=ellipse;html=1;dashed=0;whiteSpace=wrap;aspect=fixed;perimeter=ellipsePerimeter;fillColor=#d5e8d4;strokeColor=#82b366;" vertex="1" parent="1">
          <mxGeometry x="270" y="490" width="50" height="50" as="geometry" />
        </mxCell>
        <mxCell id="qrEGvLMcKR_sBZyC1PwX-4" value="&lt;font style=&quot;font-size: 15px;&quot;&gt;rB&lt;/font&gt;" style="shape=ellipse;html=1;dashed=0;whiteSpace=wrap;aspect=fixed;perimeter=ellipsePerimeter;fillColor=#d5e8d4;strokeColor=#82b366;" vertex="1" parent="1">
          <mxGeometry x="430" y="490" width="50" height="50" as="geometry" />
        </mxCell>
        <mxCell id="qrEGvLMcKR_sBZyC1PwX-5" value="&lt;font style=&quot;font-size: 15px;&quot;&gt;acc&lt;/font&gt;" style="shape=ellipse;html=1;dashed=0;whiteSpace=wrap;aspect=fixed;perimeter=ellipsePerimeter;fillColor=#d5e8d4;strokeColor=#82b366;" vertex="1" parent="1">
          <mxGeometry x="350" y="670" width="50" height="50" as="geometry" />
        </mxCell>
        <mxCell id="qrEGvLMcKR_sBZyC1PwX-6" value="&lt;font style=&quot;font-size: 15px;&quot;&gt;sA&lt;/font&gt;" style="shape=ellipse;html=1;dashed=0;whiteSpace=wrap;aspect=fixed;perimeter=ellipsePerimeter;fillColor=#d5e8d4;strokeColor=#82b366;" vertex="1" parent="1">
          <mxGeometry x="270" y="350" width="50" height="50" as="geometry" />
        </mxCell>
        <mxCell id="qrEGvLMcKR_sBZyC1PwX-7" value="&lt;font style=&quot;font-size: 15px;&quot;&gt;sB&lt;/font&gt;" style="shape=ellipse;html=1;dashed=0;whiteSpace=wrap;aspect=fixed;perimeter=ellipsePerimeter;fillColor=#d5e8d4;strokeColor=#82b366;" vertex="1" parent="1">
          <mxGeometry x="430" y="350" width="50" height="50" as="geometry" />
        </mxCell>
        <mxCell id="qrEGvLMcKR_sBZyC1PwX-9" value="&lt;span style=&quot;font-size: 15px;&quot;&gt;sC&lt;/span&gt;" style="shape=ellipse;html=1;dashed=0;whiteSpace=wrap;aspect=fixed;perimeter=ellipsePerimeter;fillColor=#d5e8d4;strokeColor=#82b366;" vertex="1" parent="1">
          <mxGeometry x="350" y="830" width="50" height="50" as="geometry" />
        </mxCell>
        <mxCell id="qrEGvLMcKR_sBZyC1PwX-10" value="" style="endArrow=classic;html=1;rounded=0;exitX=0.5;exitY=1;exitDx=0;exitDy=0;entryX=0.5;entryY=0;entryDx=0;entryDy=0;strokeColor=#E22C2C;strokeWidth=2;" edge="1" parent="1" source="qrEGvLMcKR_sBZyC1PwX-6">
          <mxGeometry width="50" height="50" relative="1" as="geometry">
            <mxPoint x="294.5" y="420" as="sourcePoint" />
            <mxPoint x="294.5" y="490" as="targetPoint" />
          </mxGeometry>
        </mxCell>
        <mxCell id="qrEGvLMcKR_sBZyC1PwX-11" value="" style="endArrow=classic;html=1;rounded=0;entryX=0.5;entryY=0;entryDx=0;entryDy=0;strokeColor=#E22C2C;strokeWidth=2;exitX=0.5;exitY=1;exitDx=0;exitDy=0;" edge="1" parent="1" source="qrEGvLMcKR_sBZyC1PwX-7">
          <mxGeometry width="50" height="50" relative="1" as="geometry">
            <mxPoint x="454.5" y="420" as="sourcePoint" />
            <mxPoint x="454.5" y="490" as="targetPoint" />
          </mxGeometry>
        </mxCell>
        <mxCell id="qrEGvLMcKR_sBZyC1PwX-13" value="" style="endArrow=classic;html=1;rounded=0;exitX=0.5;exitY=1;exitDx=0;exitDy=0;entryX=0.5;entryY=0;entryDx=0;entryDy=0;strokeColor=#007FFF;strokeWidth=2;" edge="1" parent="1" source="qrEGvLMcKR_sBZyC1PwX-5">
          <mxGeometry width="50" height="50" relative="1" as="geometry">
            <mxPoint x="374.5" y="760" as="sourcePoint" />
            <mxPoint x="374.5" y="830" as="targetPoint" />
          </mxGeometry>
        </mxCell>
        <mxCell id="qrEGvLMcKR_sBZyC1PwX-14" value="&lt;font style=&quot;font-size: 15px;&quot;&gt;gA&lt;/font&gt;" style="ellipse;whiteSpace=wrap;html=1;fillColor=#d5e8d4;strokeColor=#82b366;" vertex="1" parent="1">
          <mxGeometry x="235" y="200" width="120" height="80" as="geometry" />
        </mxCell>
        <mxCell id="qrEGvLMcKR_sBZyC1PwX-15" value="" style="endArrow=classic;html=1;rounded=0;entryX=0.5;entryY=0;entryDx=0;entryDy=0;strokeColor=#E22C2C;strokeWidth=2;" edge="1" parent="1">
          <mxGeometry width="50" height="50" relative="1" as="geometry">
            <mxPoint x="295" y="280" as="sourcePoint" />
            <mxPoint x="294.5" y="350" as="targetPoint" />
          </mxGeometry>
        </mxCell>
        <mxCell id="qrEGvLMcKR_sBZyC1PwX-16" value="&lt;font style=&quot;font-size: 15px;&quot;&gt;gB&lt;/font&gt;" style="ellipse;whiteSpace=wrap;html=1;fillColor=#d5e8d4;strokeColor=#82b366;" vertex="1" parent="1">
          <mxGeometry x="395" y="200" width="120" height="80" as="geometry" />
        </mxCell>
        <mxCell id="qrEGvLMcKR_sBZyC1PwX-17" value="" style="endArrow=classic;html=1;rounded=0;entryX=0.5;entryY=0;entryDx=0;entryDy=0;strokeColor=#E22C2C;strokeWidth=2;" edge="1" parent="1">
          <mxGeometry width="50" height="50" relative="1" as="geometry">
            <mxPoint x="455" y="280" as="sourcePoint" />
            <mxPoint x="454.5" y="350" as="targetPoint" />
          </mxGeometry>
        </mxCell>
        <mxCell id="qrEGvLMcKR_sBZyC1PwX-19" value="&lt;font style=&quot;font-size: 15px;&quot;&gt;gC&lt;/font&gt;" style="ellipse;whiteSpace=wrap;html=1;fillColor=#d5e8d4;strokeColor=#82b366;" vertex="1" parent="1">
          <mxGeometry x="315" y="940" width="120" height="80" as="geometry" />
        </mxCell>
        <mxCell id="qrEGvLMcKR_sBZyC1PwX-20" value="" style="endArrow=classic;html=1;rounded=0;entryX=0.5;entryY=0;entryDx=0;entryDy=0;strokeColor=#007FFF;strokeWidth=2;exitX=0.5;exitY=1;exitDx=0;exitDy=0;" edge="1" parent="1" source="qrEGvLMcKR_sBZyC1PwX-9">
          <mxGeometry width="50" height="50" relative="1" as="geometry">
            <mxPoint x="375" y="890" as="sourcePoint" />
            <mxPoint x="374.5" y="940" as="targetPoint" />
          </mxGeometry>
        </mxCell>
        <mxCell id="qrEGvLMcKR_sBZyC1PwX-22" value="&lt;h1&gt;&lt;font color=&quot;#cc6600&quot; size=&quot;1&quot; style=&quot;&quot;&gt;&lt;b style=&quot;font-size: 20px;&quot;&gt;RF Level&lt;/b&gt;&lt;/font&gt;&lt;/h1&gt;" style="text;html=1;strokeColor=none;fillColor=none;align=center;verticalAlign=middle;whiteSpace=wrap;rounded=0;" vertex="1" parent="1">
          <mxGeometry x="295" y="565" width="150" height="90" as="geometry" />
        </mxCell>
        <mxCell id="qrEGvLMcKR_sBZyC1PwX-23" value="&lt;h1&gt;&lt;font color=&quot;#cc6600&quot; size=&quot;1&quot; style=&quot;&quot;&gt;&lt;b style=&quot;font-size: 20px;&quot;&gt;Shared Level&lt;/b&gt;&lt;/font&gt;&lt;/h1&gt;" style="text;html=1;strokeColor=none;fillColor=none;align=center;verticalAlign=middle;whiteSpace=wrap;rounded=0;" vertex="1" parent="1">
          <mxGeometry x="550" y="560" width="150" height="90" as="geometry" />
        </mxCell>
      </root>
    </mxGraphModel>
  </diagram>
</mxfile>
